<svg width="41" height="45" viewBox="0 0 41 45" fill="none" xmlns="http://www.w3.org/2000/svg">
<path fill-rule="evenodd" clip-rule="evenodd" d="M12.7526 1.99875C14.7565 1.8975 15.3954 1.875 20.4999 1.875C25.6044 1.875 26.2433 1.89937 28.2455 1.99875C30.2477 2.09812 31.6143 2.44875 32.8102 2.95688C34.0624 3.47625 35.1984 4.28812 36.138 5.33812C37.0947 6.3675 37.8327 7.6125 38.3042 8.98875C38.7688 10.3013 39.0866 11.8013 39.1788 13.995C39.2711 16.1981 39.2916 16.8994 39.2916 22.5C39.2916 28.1025 39.2694 28.8037 39.1788 31.0031C39.0883 33.1969 38.7688 34.6969 38.3042 36.0094C37.8327 37.3858 37.0934 38.6329 36.138 39.6637C35.1984 40.7137 34.0624 41.5238 32.8102 42.0413C31.6143 42.5513 30.2477 42.9 28.2489 43.0013C26.2433 43.1025 25.6044 43.125 20.4999 43.125C15.3954 43.125 14.7565 43.1006 12.7526 43.0013C10.7539 42.9019 9.38721 42.5513 8.19138 42.0413C6.93732 41.5237 5.80111 40.7124 4.86184 39.6637C3.90582 38.6338 3.166 37.3873 2.69396 36.0112C2.231 34.6987 1.91325 33.1987 1.821 31.005C1.72875 28.8019 1.70825 28.1006 1.70825 22.5C1.70825 16.8975 1.73046 16.1963 1.821 13.9988C1.91154 11.8013 2.231 10.3013 2.69396 8.98875C3.1667 7.61265 3.90708 6.36621 4.86354 5.33625C5.80149 4.28719 6.93656 3.47521 8.18967 2.95688C9.3855 2.44875 10.7522 2.1 12.7509 1.99875H12.7526ZM28.0935 5.71125C26.1118 5.61188 25.5173 5.59125 20.4999 5.59125C15.4825 5.59125 14.888 5.61188 12.9064 5.71125C11.0733 5.80313 10.0791 6.13875 9.41625 6.42187C8.53988 6.79687 7.91292 7.24125 7.25521 7.96313C6.63175 8.62885 6.15193 9.43928 5.85096 10.335C5.593 11.0625 5.28721 12.1537 5.2035 14.1656C5.11296 16.3406 5.09417 16.9931 5.09417 22.5C5.09417 28.0069 5.11296 28.6594 5.2035 30.8344C5.28721 32.8462 5.593 33.9375 5.85096 34.665C6.15163 35.5594 6.63167 36.3713 7.25521 37.0369C7.86167 37.7213 8.60138 38.2481 9.41625 38.5781C10.0791 38.8613 11.0733 39.1969 12.9064 39.2888C14.888 39.3881 15.4808 39.4087 20.4999 39.4087C25.519 39.4087 26.1118 39.3881 28.0935 39.2888C29.9265 39.1969 30.9208 38.8613 31.5836 38.5781C32.46 38.2031 33.0869 37.7588 33.7446 37.0369C34.3682 36.3713 34.8482 35.5594 35.1489 34.665C35.4068 33.9375 35.7126 32.8462 35.7963 30.8344C35.8869 28.6594 35.9057 28.0069 35.9057 22.5C35.9057 16.9931 35.8869 16.3406 35.7963 14.1656C35.7126 12.1537 35.4068 11.0625 35.1489 10.335C34.8072 9.37313 34.4023 8.685 33.7446 7.96313C33.138 7.27888 32.3997 6.75227 31.5836 6.42187C30.9208 6.13875 29.9265 5.80313 28.0935 5.71125V5.71125ZM18.0997 28.8581C19.4402 29.4706 20.9328 29.5532 22.3226 29.092C23.7124 28.6307 24.9132 27.6542 25.7199 26.3292C26.5266 25.0042 26.8892 23.4129 26.7457 21.8271C26.6021 20.2413 25.9615 18.7593 24.933 17.6344C24.2774 16.9153 23.4847 16.3646 22.612 16.0222C21.7392 15.6797 20.8082 15.5538 19.8858 15.6537C18.9634 15.7535 18.0726 16.0766 17.2777 16.5996C16.4827 17.1227 15.8033 17.8326 15.2883 18.6785C14.7733 19.5243 14.4357 20.4849 14.2995 21.4912C14.1634 22.4974 14.2323 23.5243 14.5012 24.4978C14.77 25.4714 15.2322 26.3674 15.8545 27.1214C16.4767 27.8753 17.2435 28.4685 18.0997 28.8581ZM13.67 15.0037C14.5669 14.0193 15.6317 13.2384 16.8036 12.7057C17.9755 12.1729 19.2315 11.8987 20.4999 11.8987C21.7684 11.8987 23.0244 12.1729 24.1962 12.7057C25.3681 13.2384 26.4329 14.0193 27.3298 15.0037C28.2268 15.9882 28.9382 17.1568 29.4236 18.4431C29.909 19.7293 30.1589 21.1078 30.1589 22.5C30.1589 23.8922 29.909 25.2707 29.4236 26.5569C28.9382 27.8432 28.2268 29.0118 27.3298 29.9963C25.5184 31.9844 23.0616 33.1013 20.4999 33.1013C17.9382 33.1013 15.4814 31.9844 13.67 29.9963C11.8586 28.0081 10.841 25.3116 10.841 22.5C10.841 19.6884 11.8586 16.9919 13.67 15.0037V15.0037ZM32.3011 13.4775C32.5233 13.2474 32.7013 12.9707 32.8244 12.6637C32.9474 12.3568 33.0131 12.0258 33.0176 11.6905C33.022 11.3552 32.9652 11.0223 32.8503 10.7115C32.7354 10.4008 32.5649 10.1185 32.3489 9.88132C32.1328 9.64419 31.8756 9.45705 31.5925 9.33097C31.3093 9.2049 31.006 9.14245 30.7005 9.14734C30.395 9.15223 30.0935 9.22435 29.8138 9.35943C29.5341 9.49451 29.282 9.6898 29.0723 9.93375C28.6646 10.4082 28.4413 11.0384 28.45 11.6905C28.4587 12.3426 28.6985 12.9654 29.1187 13.4266C29.5389 13.8878 30.1063 14.1511 30.7005 14.1606C31.2947 14.1701 31.8688 13.925 32.3011 13.4775V13.4775Z" fill="white"/>
</svg>
