<svg width="47" height="50" viewBox="0 0 47 50" fill="none" xmlns="http://www.w3.org/2000/svg">
<path d="M40.3906 5.46875H6.60938C5.79697 5.46875 5.14062 6.16699 5.14062 7.03125V42.9688C5.14062 43.833 5.79697 44.5313 6.60938 44.5313H40.3906C41.203 44.5313 41.8594 43.833 41.8594 42.9688V7.03125C41.8594 6.16699 41.203 5.46875 40.3906 5.46875ZM38.9219 41.4063H30.472V29.4043H35.2454L35.9614 23.5107H30.472V19.7461C30.472 18.0371 30.9172 16.875 33.2167 16.875H36.1496V11.6016C35.6401 11.5283 33.9006 11.3672 31.8719 11.3672C27.64 11.3672 24.7438 14.1162 24.7438 19.1602V23.5059H19.9612V29.3994H24.7484V41.4063H8.07812V8.59375H38.9219V41.4063Z" fill="white"/>
</svg>
